# MagicaVoxel @ Ephtracy

# group
o 

# material
mtllib Tile_002.mtl
usemtl palette

# normals
vn -1 0 0
vn 1 0 0
vn 0 0 1
vn 0 0 -1
vn 0 -1 0
vn 0 1 0

# texcoords
vt 0.845703 0.5
vt 0.958984 0.5
vt 0.994141 0.5

# verts
v -0.5 0 0.5
v -0.5 0 -0.5
v -0.5 0.4 0.5
v -0.5 0.4 -0.5
v -0.5 0.5 0.5
v -0.5 0.5 -0.5
v -0.5 1 0.5
v -0.5 1 -0.5
v 0.5 0 0.5
v 0.5 0 -0.5
v 0.5 0.4 0.5
v 0.5 0.4 -0.5
v 0.5 0.5 0.5
v 0.5 0.5 -0.5
v 0.5 1 0.5
v 0.5 1 -0.5
v -0.5 0 0.5
v -0.5 0.4 0.5
v -0.5 0.5 0.5
v -0.5 1 0.5
v 0.5 0 0.5
v 0.5 0.4 0.5
v 0.5 0.5 0.5
v 0.5 1 0.5
v -0.5 0 -0.5
v -0.5 0.4 -0.5
v -0.5 0.5 -0.5
v -0.5 1 -0.5
v -0.1 0.3 -0.5
v -0.1 0.4 -0.5
v -0.1 0.5 -0.5
v -0.1 0.6 -0.5
v 0.1 0.3 -0.5
v 0.1 0.4 -0.5
v 0.1 0.5 -0.5
v 0.1 0.6 -0.5
v 0.5 0 -0.5
v 0.5 0.4 -0.5
v 0.5 0.5 -0.5
v 0.5 1 -0.5
v -0.5 0 0.5
v 0.5 0 0.5
v -0.5 0 -0.5
v 0.5 0 -0.5
v -0.5 1 0.5
v 0.5 1 0.5
v -0.5 1 -0.5
v 0.5 1 -0.5

# faces
f 3/2/1 2/2/1 1/2/1
f 4/2/1 2/2/1 3/2/1
f 5/3/1 4/3/1 3/3/1
f 6/3/1 4/3/1 5/3/1
f 7/1/1 6/1/1 5/1/1
f 8/1/1 6/1/1 7/1/1
f 9/2/2 10/2/2 11/2/2
f 11/2/2 10/2/2 12/2/2
f 11/3/2 12/3/2 13/3/2
f 13/3/2 12/3/2 14/3/2
f 13/1/2 14/1/2 15/1/2
f 15/1/2 14/1/2 16/1/2
f 21/2/3 18/2/3 17/2/3
f 22/3/3 19/3/3 18/3/3
f 22/2/3 18/2/3 21/2/3
f 23/1/3 20/1/3 19/1/3
f 23/3/3 19/3/3 22/3/3
f 24/1/3 20/1/3 23/1/3
f 25/2/4 26/2/4 29/2/4
f 26/3/4 27/3/4 30/3/4
f 29/2/4 26/2/4 30/2/4
f 27/1/4 28/1/4 31/1/4
f 30/3/4 27/3/4 31/3/4
f 31/1/4 28/1/4 32/1/4
f 29/3/4 30/3/4 33/3/4
f 25/2/4 29/2/4 33/2/4
f 30/2/4 31/2/4 34/2/4
f 33/3/4 30/3/4 34/3/4
f 31/3/4 32/3/4 35/3/4
f 34/2/4 31/2/4 35/2/4
f 32/1/4 28/1/4 36/1/4
f 35/3/4 32/3/4 36/3/4
f 33/2/4 34/2/4 37/2/4
f 25/2/4 33/2/4 37/2/4
f 34/3/4 35/3/4 38/3/4
f 37/2/4 34/2/4 38/2/4
f 35/1/4 36/1/4 39/1/4
f 38/3/4 35/3/4 39/3/4
f 36/1/4 28/1/4 40/1/4
f 39/1/4 36/1/4 40/1/4
f 43/2/5 42/2/5 41/2/5
f 44/2/5 42/2/5 43/2/5
f 45/1/6 46/1/6 47/1/6
f 47/1/6 46/1/6 48/1/6
